<mxfile host="app.diagrams.net" modified="2024-07-03T08:51:49.306Z" agent="Mozilla/5.0 (Macintosh; Intel Mac OS X 10_15_7) AppleWebKit/537.36 (KHTML, like Gecko) Chrome/126.0.0.0 Safari/537.36" etag="JGBXOmJ_IqVPc0fVa_GS" version="24.6.4" type="device">
  <diagram name="페이지-1" id="7MQ7_XVWY8sjP5uu50oe">
    <mxGraphModel dx="1831" dy="647" grid="1" gridSize="10" guides="1" tooltips="1" connect="1" arrows="1" fold="1" page="1" pageScale="1" pageWidth="827" pageHeight="1169" math="0" shadow="0">
      <root>
        <mxCell id="0" />
        <mxCell id="1" parent="0" />
        <mxCell id="V0q5z42WQEeiZUnhtIax-3" value="" style="edgeStyle=orthogonalEdgeStyle;rounded=0;orthogonalLoop=1;jettySize=auto;html=1;" edge="1" parent="1" source="V0q5z42WQEeiZUnhtIax-1" target="V0q5z42WQEeiZUnhtIax-2">
          <mxGeometry relative="1" as="geometry" />
        </mxCell>
        <mxCell id="V0q5z42WQEeiZUnhtIax-1" value="시작" style="ellipse;whiteSpace=wrap;html=1;" vertex="1" parent="1">
          <mxGeometry x="354" y="60" width="120" height="80" as="geometry" />
        </mxCell>
        <mxCell id="V0q5z42WQEeiZUnhtIax-5" value="" style="edgeStyle=orthogonalEdgeStyle;rounded=0;orthogonalLoop=1;jettySize=auto;html=1;" edge="1" parent="1" source="V0q5z42WQEeiZUnhtIax-2" target="V0q5z42WQEeiZUnhtIax-4">
          <mxGeometry relative="1" as="geometry" />
        </mxCell>
        <mxCell id="V0q5z42WQEeiZUnhtIax-2" value="&lt;p style=&quot;margin: 0px; font-variant-numeric: normal; font-variant-east-asian: normal; font-variant-alternates: normal; font-kerning: auto; font-optical-sizing: auto; font-feature-settings: normal; font-variation-settings: normal; font-variant-position: normal; font-stretch: normal; line-height: normal; font-family: Menlo; text-align: start;&quot; class=&quot;p1&quot;&gt;&lt;span style=&quot;&quot; class=&quot;s1&quot;&gt;var&lt;/span&gt;&lt;span style=&quot;&quot; class=&quot;s2&quot;&gt; &lt;/span&gt;pokyBody&lt;span style=&quot;&quot; class=&quot;s2&quot;&gt;: &lt;/span&gt;&lt;span style=&quot;&quot; class=&quot;s3&quot;&gt;Int&lt;/span&gt;&lt;span style=&quot;&quot; class=&quot;s2&quot;&gt; = &lt;/span&gt;&lt;span style=&quot;&quot; class=&quot;s4&quot;&gt;10&lt;/span&gt;&lt;/p&gt;&lt;p style=&quot;margin: 0px; font-variant-numeric: normal; font-variant-east-asian: normal; font-variant-alternates: normal; font-kerning: auto; font-optical-sizing: auto; font-feature-settings: normal; font-variation-settings: normal; font-variant-position: normal; font-stretch: normal; line-height: normal; font-family: Menlo; text-align: start;&quot; class=&quot;p1&quot;&gt;&lt;span style=&quot;&quot; class=&quot;s1&quot;&gt;var&lt;/span&gt;&lt;span style=&quot;&quot; class=&quot;s2&quot;&gt; &lt;/span&gt;pokyStick&lt;span style=&quot;&quot; class=&quot;s2&quot;&gt;: &lt;/span&gt;&lt;span style=&quot;&quot; class=&quot;s3&quot;&gt;Int&lt;/span&gt;&lt;span style=&quot;&quot; class=&quot;s2&quot;&gt; = &lt;/span&gt;&lt;span style=&quot;&quot; class=&quot;s4&quot;&gt;6&lt;/span&gt;&lt;/p&gt;&lt;p style=&quot;margin: 0px; font-variant-numeric: normal; font-variant-east-asian: normal; font-variant-alternates: normal; font-kerning: auto; font-optical-sizing: auto; font-feature-settings: normal; font-variation-settings: normal; font-variant-position: normal; font-stretch: normal; line-height: normal; font-family: Menlo; text-align: start;&quot; class=&quot;p1&quot;&gt;&lt;span style=&quot;&quot; class=&quot;s1&quot;&gt;var&lt;/span&gt;&lt;span style=&quot;&quot; class=&quot;s2&quot;&gt; &lt;/span&gt;pokyBodyType&lt;span style=&quot;&quot; class=&quot;s2&quot;&gt;: &lt;/span&gt;&lt;span style=&quot;&quot; class=&quot;s3&quot;&gt;String&lt;/span&gt;&lt;span style=&quot;&quot; class=&quot;s2&quot;&gt; = &lt;/span&gt;&lt;span style=&quot;&quot; class=&quot;s5&quot;&gt;&quot;| |&quot;&lt;/span&gt;&lt;/p&gt;&lt;p style=&quot;margin: 0px; font-variant-numeric: normal; font-variant-east-asian: normal; font-variant-alternates: normal; font-kerning: auto; font-optical-sizing: auto; font-feature-settings: normal; font-variation-settings: normal; font-variant-position: normal; font-stretch: normal; line-height: normal; font-family: Menlo; text-align: start;&quot; class=&quot;p1&quot;&gt;&lt;span style=&quot;&quot; class=&quot;s1&quot;&gt;var&lt;/span&gt;&lt;span style=&quot;&quot; class=&quot;s2&quot;&gt; &lt;/span&gt;pokyTopping&lt;span style=&quot;&quot; class=&quot;s2&quot;&gt;: &lt;/span&gt;&lt;span style=&quot;&quot; class=&quot;s3&quot;&gt;Character&lt;/span&gt;&lt;span style=&quot;&quot; class=&quot;s2&quot;&gt; = &lt;/span&gt;&lt;span style=&quot;&quot; class=&quot;s5&quot;&gt;&quot;+&quot;&lt;/span&gt;&lt;/p&gt;" style="whiteSpace=wrap;html=1;" vertex="1" parent="1">
          <mxGeometry x="281" y="210" width="266" height="140" as="geometry" />
        </mxCell>
        <mxCell id="V0q5z42WQEeiZUnhtIax-17" style="edgeStyle=orthogonalEdgeStyle;rounded=0;orthogonalLoop=1;jettySize=auto;html=1;exitX=0.5;exitY=1;exitDx=0;exitDy=0;entryX=0.5;entryY=0;entryDx=0;entryDy=0;" edge="1" parent="1" source="V0q5z42WQEeiZUnhtIax-4" target="V0q5z42WQEeiZUnhtIax-6">
          <mxGeometry relative="1" as="geometry" />
        </mxCell>
        <mxCell id="V0q5z42WQEeiZUnhtIax-4" value="&lt;p style=&quot;margin: 0px; font-variant-numeric: normal; font-variant-east-asian: normal; font-variant-alternates: normal; font-kerning: auto; font-optical-sizing: auto; font-feature-settings: normal; font-variation-settings: normal; font-variant-position: normal; font-stretch: normal; line-height: normal; font-family: Menlo; text-align: start;&quot; class=&quot;p1&quot;&gt;&lt;span style=&quot;background-color: initial;&quot;&gt;&amp;lt;정보&amp;gt;&lt;/span&gt;&lt;br&gt;&lt;/p&gt;&lt;p style=&quot;margin: 0px; font-variant-numeric: normal; font-variant-east-asian: normal; font-variant-alternates: normal; font-kerning: auto; font-optical-sizing: auto; font-feature-settings: normal; font-variation-settings: normal; font-variant-position: normal; font-stretch: normal; line-height: normal; font-family: Menlo; text-align: start;&quot; class=&quot;p3&quot;&gt;&lt;span style=&quot;&quot; class=&quot;s2&quot;&gt;길이: 10&lt;/span&gt;&lt;/p&gt;&lt;p style=&quot;margin: 0px; font-variant-numeric: normal; font-variant-east-asian: normal; font-variant-alternates: normal; font-kerning: auto; font-optical-sizing: auto; font-feature-settings: normal; font-variation-settings: normal; font-variant-position: normal; font-stretch: normal; line-height: normal; font-family: Menlo; text-align: start;&quot; class=&quot;p3&quot;&gt;&lt;span style=&quot;&quot; class=&quot;s2&quot;&gt;몸통: 6&lt;/span&gt;&lt;/p&gt;&lt;p style=&quot;margin: 0px; font-variant-numeric: normal; font-variant-east-asian: normal; font-variant-alternates: normal; font-kerning: auto; font-optical-sizing: auto; font-feature-settings: normal; font-variation-settings: normal; font-variant-position: normal; font-stretch: normal; line-height: normal; font-family: Menlo; text-align: start;&quot; class=&quot;p3&quot;&gt;&lt;span style=&quot;&quot; class=&quot;s2&quot;&gt;토핑: &quot;| |&quot;&lt;/span&gt;&lt;/p&gt;&lt;p style=&quot;margin: 0px; font-variant-numeric: normal; font-variant-east-asian: normal; font-variant-alternates: normal; font-kerning: auto; font-optical-sizing: auto; font-feature-settings: normal; font-variation-settings: normal; font-variant-position: normal; font-stretch: normal; line-height: normal; font-family: Menlo; text-align: start;&quot; class=&quot;p3&quot;&gt;&lt;span style=&quot;&quot; class=&quot;s2&quot;&gt;막대길이: &quot;+&quot;&lt;/span&gt;&lt;/p&gt;&lt;p style=&quot;margin: 0px; font-variant-numeric: normal; font-variant-east-asian: normal; font-variant-alternates: normal; font-kerning: auto; font-optical-sizing: auto; font-feature-settings: normal; font-variation-settings: normal; font-variant-position: normal; font-stretch: normal; line-height: normal; font-family: Menlo;&quot; class=&quot;p3&quot;&gt;&lt;span style=&quot;&quot; class=&quot;s1&quot;&gt;&lt;br&gt;&lt;/span&gt;&lt;/p&gt;&lt;p style=&quot;margin: 0px; font-variant-numeric: normal; font-variant-east-asian: normal; font-variant-alternates: normal; font-kerning: auto; font-optical-sizing: auto; font-feature-settings: normal; font-variation-settings: normal; font-variant-position: normal; font-stretch: normal; line-height: normal; font-family: Menlo;&quot; class=&quot;p3&quot;&gt;&lt;span style=&quot;&quot; class=&quot;s1&quot;&gt;출력&lt;/span&gt;&lt;/p&gt;" style="whiteSpace=wrap;html=1;" vertex="1" parent="1">
          <mxGeometry x="314.5" y="430" width="199" height="140" as="geometry" />
        </mxCell>
        <mxCell id="V0q5z42WQEeiZUnhtIax-9" value="" style="edgeStyle=orthogonalEdgeStyle;rounded=0;orthogonalLoop=1;jettySize=auto;html=1;" edge="1" parent="1" source="V0q5z42WQEeiZUnhtIax-6" target="V0q5z42WQEeiZUnhtIax-8">
          <mxGeometry relative="1" as="geometry" />
        </mxCell>
        <mxCell id="V0q5z42WQEeiZUnhtIax-6" value="&lt;p style=&quot;margin: 0px; font-variant-numeric: normal; font-variant-east-asian: normal; font-variant-alternates: normal; font-kerning: auto; font-optical-sizing: auto; font-feature-settings: normal; font-variation-settings: normal; font-variant-position: normal; font-stretch: normal; line-height: normal; font-family: Menlo;&quot; class=&quot;p1&quot;&gt;&lt;span style=&quot;background-color: rgb(255, 255, 255);&quot;&gt;printPoky&lt;span style=&quot;&quot; class=&quot;s1&quot;&gt;(&lt;/span&gt;pokyBody&lt;span style=&quot;&quot; class=&quot;s1&quot;&gt;: &lt;/span&gt;pokyBody&lt;span style=&quot;&quot; class=&quot;s1&quot;&gt;, &lt;/span&gt;pokyStick&lt;span style=&quot;&quot; class=&quot;s1&quot;&gt;: &lt;/span&gt;pokyStick&lt;span style=&quot;&quot; class=&quot;s1&quot;&gt;, &lt;/span&gt;pokyBodyType&lt;span style=&quot;&quot; class=&quot;s1&quot;&gt;: &lt;/span&gt;pokyBodyType&lt;span style=&quot;&quot; class=&quot;s1&quot;&gt;, &lt;/span&gt;pokyTopping&lt;span style=&quot;&quot; class=&quot;s1&quot;&gt;: &lt;/span&gt;pokyTopping&lt;span style=&quot;&quot; class=&quot;s1&quot;&gt;)&lt;/span&gt;&lt;/span&gt;&lt;/p&gt;&lt;p style=&quot;margin: 0px; font-variant-numeric: normal; font-variant-east-asian: normal; font-variant-alternates: normal; font-kerning: auto; font-optical-sizing: auto; font-feature-settings: normal; font-variation-settings: normal; font-variant-position: normal; font-stretch: normal; line-height: normal; font-family: Menlo;&quot; class=&quot;p1&quot;&gt;&lt;span style=&quot;background-color: rgb(255, 255, 255);&quot;&gt;&lt;br&gt;&lt;/span&gt;&lt;/p&gt;&lt;p style=&quot;margin: 0px; font-variant-numeric: normal; font-variant-east-asian: normal; font-variant-alternates: normal; font-kerning: auto; font-optical-sizing: auto; font-feature-settings: normal; font-variation-settings: normal; font-variant-position: normal; font-stretch: normal; line-height: normal; font-family: Menlo;&quot; class=&quot;p1&quot;&gt;&lt;span style=&quot;background-color: rgb(255, 255, 255);&quot;&gt;출력&lt;/span&gt;&lt;/p&gt;" style="whiteSpace=wrap;html=1;align=center;" vertex="1" parent="1">
          <mxGeometry x="-11" y="610" width="850" height="80" as="geometry" />
        </mxCell>
        <mxCell id="V0q5z42WQEeiZUnhtIax-15" value="" style="edgeStyle=orthogonalEdgeStyle;rounded=0;orthogonalLoop=1;jettySize=auto;html=1;" edge="1" parent="1" source="V0q5z42WQEeiZUnhtIax-8" target="V0q5z42WQEeiZUnhtIax-14">
          <mxGeometry relative="1" as="geometry" />
        </mxCell>
        <mxCell id="V0q5z42WQEeiZUnhtIax-22" style="edgeStyle=orthogonalEdgeStyle;rounded=0;orthogonalLoop=1;jettySize=auto;html=1;exitX=1;exitY=0.5;exitDx=0;exitDy=0;entryX=1;entryY=0.5;entryDx=0;entryDy=0;" edge="1" parent="1" source="V0q5z42WQEeiZUnhtIax-8" target="V0q5z42WQEeiZUnhtIax-25">
          <mxGeometry relative="1" as="geometry">
            <mxPoint x="474" y="1180" as="targetPoint" />
            <Array as="points">
              <mxPoint x="670" y="850" />
              <mxPoint x="670" y="1190" />
            </Array>
          </mxGeometry>
        </mxCell>
        <mxCell id="V0q5z42WQEeiZUnhtIax-8" value="_ 의 값이 pokyBody(10) 보다 작은가?" style="rhombus;whiteSpace=wrap;html=1;" vertex="1" parent="1">
          <mxGeometry x="246.5" y="770" width="335" height="160" as="geometry" />
        </mxCell>
        <mxCell id="V0q5z42WQEeiZUnhtIax-10" value="ex) pokyBody = 10&lt;div&gt;10회 출력&lt;/div&gt;" style="rounded=1;whiteSpace=wrap;html=1;" vertex="1" parent="1">
          <mxGeometry x="560" y="720" width="140" height="80" as="geometry" />
        </mxCell>
        <mxCell id="V0q5z42WQEeiZUnhtIax-18" style="edgeStyle=orthogonalEdgeStyle;rounded=0;orthogonalLoop=1;jettySize=auto;html=1;exitX=0;exitY=0.5;exitDx=0;exitDy=0;" edge="1" parent="1" source="V0q5z42WQEeiZUnhtIax-14">
          <mxGeometry relative="1" as="geometry">
            <mxPoint x="414" y="730" as="targetPoint" />
            <Array as="points">
              <mxPoint x="180" y="1020" />
              <mxPoint x="180" y="730" />
            </Array>
          </mxGeometry>
        </mxCell>
        <mxCell id="V0q5z42WQEeiZUnhtIax-14" value="_ 에 1을 더한다." style="whiteSpace=wrap;html=1;" vertex="1" parent="1">
          <mxGeometry x="354" y="990" width="120" height="60" as="geometry" />
        </mxCell>
        <mxCell id="V0q5z42WQEeiZUnhtIax-20" value="" style="endArrow=none;html=1;rounded=0;entryX=0;entryY=0.5;entryDx=0;entryDy=0;exitX=1;exitY=0;exitDx=0;exitDy=0;" edge="1" parent="1" source="V0q5z42WQEeiZUnhtIax-8" target="V0q5z42WQEeiZUnhtIax-10">
          <mxGeometry width="50" height="50" relative="1" as="geometry">
            <mxPoint x="380" y="1000" as="sourcePoint" />
            <mxPoint x="430" y="950" as="targetPoint" />
          </mxGeometry>
        </mxCell>
        <mxCell id="V0q5z42WQEeiZUnhtIax-23" value="Yes" style="text;strokeColor=none;fillColor=none;html=1;fontSize=24;fontStyle=1;verticalAlign=middle;align=center;" vertex="1" parent="1">
          <mxGeometry x="313" y="930" width="100" height="40" as="geometry" />
        </mxCell>
        <mxCell id="V0q5z42WQEeiZUnhtIax-24" value="No" style="text;strokeColor=none;fillColor=none;html=1;fontSize=24;fontStyle=1;verticalAlign=middle;align=center;" vertex="1" parent="1">
          <mxGeometry x="560" y="810" width="100" height="40" as="geometry" />
        </mxCell>
        <mxCell id="V0q5z42WQEeiZUnhtIax-27" value="" style="edgeStyle=orthogonalEdgeStyle;rounded=0;orthogonalLoop=1;jettySize=auto;html=1;" edge="1" parent="1" source="V0q5z42WQEeiZUnhtIax-25" target="V0q5z42WQEeiZUnhtIax-26">
          <mxGeometry relative="1" as="geometry" />
        </mxCell>
        <mxCell id="V0q5z42WQEeiZUnhtIax-31" style="edgeStyle=orthogonalEdgeStyle;rounded=0;orthogonalLoop=1;jettySize=auto;html=1;exitX=0;exitY=0.5;exitDx=0;exitDy=0;entryX=0;entryY=0.5;entryDx=0;entryDy=0;" edge="1" parent="1" source="V0q5z42WQEeiZUnhtIax-25" target="V0q5z42WQEeiZUnhtIax-30">
          <mxGeometry relative="1" as="geometry">
            <mxPoint x="270" y="1540" as="targetPoint" />
            <Array as="points">
              <mxPoint x="190" y="1190" />
              <mxPoint x="190" y="1530" />
            </Array>
          </mxGeometry>
        </mxCell>
        <mxCell id="V0q5z42WQEeiZUnhtIax-25" value="_ 의 값이 pokyStick(6) 보다 작은가?" style="rhombus;whiteSpace=wrap;html=1;" vertex="1" parent="1">
          <mxGeometry x="246.5" y="1110" width="335" height="160" as="geometry" />
        </mxCell>
        <mxCell id="V0q5z42WQEeiZUnhtIax-29" style="edgeStyle=orthogonalEdgeStyle;rounded=0;orthogonalLoop=1;jettySize=auto;html=1;exitX=1;exitY=0.5;exitDx=0;exitDy=0;" edge="1" parent="1" source="V0q5z42WQEeiZUnhtIax-26">
          <mxGeometry relative="1" as="geometry">
            <mxPoint x="630" y="1190" as="targetPoint" />
          </mxGeometry>
        </mxCell>
        <mxCell id="V0q5z42WQEeiZUnhtIax-26" value="_ 에 1을 더한다." style="whiteSpace=wrap;html=1;" vertex="1" parent="1">
          <mxGeometry x="354" y="1360" width="120" height="60" as="geometry" />
        </mxCell>
        <mxCell id="V0q5z42WQEeiZUnhtIax-28" value="Yes" style="text;strokeColor=none;fillColor=none;html=1;fontSize=24;fontStyle=1;verticalAlign=middle;align=center;" vertex="1" parent="1">
          <mxGeometry x="313" y="1270" width="100" height="40" as="geometry" />
        </mxCell>
        <mxCell id="V0q5z42WQEeiZUnhtIax-30" value="끝" style="ellipse;whiteSpace=wrap;html=1;" vertex="1" parent="1">
          <mxGeometry x="354" y="1490" width="120" height="80" as="geometry" />
        </mxCell>
        <mxCell id="V0q5z42WQEeiZUnhtIax-32" value="No" style="text;strokeColor=none;fillColor=none;html=1;fontSize=24;fontStyle=1;verticalAlign=middle;align=center;" vertex="1" parent="1">
          <mxGeometry x="170" y="1150" width="100" height="40" as="geometry" />
        </mxCell>
      </root>
    </mxGraphModel>
  </diagram>
</mxfile>
